<svg width="804" height="506" viewBox="0 0 804 506" fill="none" xmlns="http://www.w3.org/2000/svg">
<g filter="url(#filter0_i_560_1950)">
<path d="M714.209 505.795H804V233.127H714.209V505.795Z" fill="url(#paint0_linear_560_1950)"/>
<path d="M804 89.791L804 1.56102e-05L462.959 3.05176e-05L462.959 89.791L804 89.791Z" fill="url(#paint1_linear_560_1950)"/>
<path d="M804 313.856L804 224.066L555.221 224.066L555.221 313.857L804 313.856Z" fill="url(#paint2_linear_560_1950)"/>
<path d="M804 505.795L804 416.004L373.168 416.004L373.168 505.795L804 505.795Z" fill="url(#paint3_linear_560_1950)"/>
<path d="M177.111 118.623L118.623 163.93L282.553 384.701L341.041 339.805L177.111 118.623Z" fill="url(#paint4_linear_560_1950)"/>
<path fill-rule="evenodd" clip-rule="evenodd" d="M462.959 505.795H373.168V252.682L462.959 373.607V505.795ZM462.959 249.776V0H373.168V128.626L462.959 249.776Z" fill="url(#paint5_linear_560_1950)"/>
<path d="M0 505.795H89.791V0H0V505.795Z" fill="url(#paint6_linear_560_1950)"/>
<path d="M373.168 505.795H462.959L89.791 0V125.213L373.168 505.795Z" fill="url(#paint7_linear_560_1950)"/>
</g>
<defs>
<filter id="filter0_i_560_1950" x="0" y="0" width="804" height="509.795" filterUnits="userSpaceOnUse" color-interpolation-filters="sRGB">
<feFlood flood-opacity="0" result="BackgroundImageFix"/>
<feBlend mode="normal" in="SourceGraphic" in2="BackgroundImageFix" result="shape"/>
<feColorMatrix in="SourceAlpha" type="matrix" values="0 0 0 0 0 0 0 0 0 0 0 0 0 0 0 0 0 0 127 0" result="hardAlpha"/>
<feOffset dy="4"/>
<feGaussianBlur stdDeviation="25"/>
<feComposite in2="hardAlpha" operator="arithmetic" k2="-1" k3="1"/>
<feColorMatrix type="matrix" values="0 0 0 0 0.537255 0 0 0 0 0.270588 0 0 0 0 0.152941 0 0 0 0.25 0"/>
<feBlend mode="normal" in2="shape" result="effect1_innerShadow_560_1950"/>
</filter>
<linearGradient id="paint0_linear_560_1950" x1="759.516" y1="306.443" x2="759.104" y2="505.795" gradientUnits="userSpaceOnUse">
<stop stop-color="#F4804C"/>
<stop offset="1" stop-color="#814124"/>
</linearGradient>
<linearGradient id="paint1_linear_560_1950" x1="733.249" y1="45.3073" x2="359.23" y2="109.351" gradientUnits="userSpaceOnUse">
<stop stop-color="#F4804C"/>
<stop offset="1" stop-color="#814124"/>
</linearGradient>
<linearGradient id="paint2_linear_560_1950" x1="555.221" y1="276.375" x2="964.223" y2="269.373" gradientUnits="userSpaceOnUse">
<stop stop-color="#F4804C"/>
<stop offset="1" stop-color="#814124"/>
</linearGradient>
<linearGradient id="paint3_linear_560_1950" x1="804" y1="461.311" x2="373.168" y2="461.311" gradientUnits="userSpaceOnUse">
<stop stop-color="#F4804C"/>
<stop offset="1" stop-color="#814124"/>
</linearGradient>
<linearGradient id="paint4_linear_560_1950" x1="418.064" y1="0" x2="418.064" y2="505.795" gradientUnits="userSpaceOnUse">
<stop stop-color="#F4804C"/>
<stop offset="1" stop-color="#814124"/>
</linearGradient>
<linearGradient id="paint5_linear_560_1950" x1="418.064" y1="0" x2="418.064" y2="505.795" gradientUnits="userSpaceOnUse">
<stop stop-color="#F4804C"/>
<stop offset="1" stop-color="#814124"/>
</linearGradient>
<linearGradient id="paint6_linear_560_1950" x1="232.509" y1="0" x2="232.509" y2="505.795" gradientUnits="userSpaceOnUse">
<stop stop-color="#F4804C"/>
<stop offset="1" stop-color="#814124"/>
</linearGradient>
<linearGradient id="paint7_linear_560_1950" x1="231.479" y1="0" x2="231.479" y2="505.795" gradientUnits="userSpaceOnUse">
<stop stop-color="#814124"/>
<stop offset="1" stop-color="#F4804C"/>
</linearGradient>
</defs>
</svg>
